<svg xmlns="http://www.w3.org/2000/svg" width="16" height="16" viewBox="0 0 16 16">
  <g id="account_grey" transform="translate(-4 -4)">
    <path id="Path_5" data-name="Path 5" d="M12,10.1A2.1,2.1,0,1,0,9.9,8,2.1,2.1,0,0,0,12,10.1Z" fill="#9d9d9d" opacity="0.3"/>
    <path id="Path_6" data-name="Path 6" d="M12,14.9c-2.97,0-6.1,1.46-6.1,2.1v1.1H18.1V17C18.1,16.36,14.97,14.9,12,14.9Z" fill="#9d9d9d" opacity="0.3"/>
    <path id="Path_7" data-name="Path 7" d="M12,13c-2.67,0-8,1.34-8,4v3H20V17C20,14.34,14.67,13,12,13Zm6.1,5.1H5.9V17c0-.64,3.13-2.1,6.1-2.1s6.1,1.46,6.1,2.1ZM12,12A4,4,0,1,0,8,8,4,4,0,0,0,12,12Zm0-6.1A2.1,2.1,0,1,1,9.9,8,2.1,2.1,0,0,1,12,5.9Z" fill="#9d9d9d"/>
  </g>
</svg>
