<svg width="16" height="19" viewBox="0 0 16 19" fill="none" xmlns="http://www.w3.org/2000/svg">
<path d="M12.9998 7.33332C12.9998 6.00724 12.4731 4.73547 11.5354 3.79779C10.5977 2.86011 9.32592 2.33332 7.99984 2.33332C6.67375 2.33332 5.40199 2.86011 4.4643 3.79779C3.52662 4.73547 2.99984 6.00724 2.99984 7.33332V14H12.9998V7.33332ZM14.6665 14.5558L14.9998 15C15.0463 15.0619 15.0745 15.1355 15.0815 15.2126C15.0884 15.2896 15.0738 15.3671 15.0392 15.4363C15.0046 15.5055 14.9514 15.5637 14.8856 15.6044C14.8197 15.6451 14.7439 15.6667 14.6665 15.6667H1.33317C1.25579 15.6667 1.17994 15.6451 1.11412 15.6044C1.04829 15.5637 0.995098 15.5055 0.960493 15.4363C0.925887 15.3671 0.911239 15.2896 0.918188 15.2126C0.925137 15.1355 0.953409 15.0619 0.999837 15L1.33317 14.5558V7.33332C1.33317 5.56521 2.03555 3.86952 3.28579 2.61928C4.53603 1.36904 6.23173 0.666656 7.99984 0.666656C9.76795 0.666656 11.4636 1.36904 12.7139 2.61928C13.9641 3.86952 14.6665 5.56521 14.6665 7.33332V14.5558ZM5.9165 16.5H10.0832C10.0832 17.0525 9.86368 17.5824 9.47298 17.9731C9.08228 18.3638 8.55237 18.5833 7.99984 18.5833C7.4473 18.5833 6.9174 18.3638 6.5267 17.9731C6.136 17.5824 5.9165 17.0525 5.9165 16.5Z" fill="#5B5B5B"/>
</svg>
