<svg xmlns="http://www.w3.org/2000/svg" width="20" height="20" viewBox="0 0 20 20">
  <path id="contact_grey" d="M11,14H9a9,9,0,0,1,9-9V7A7,7,0,0,0,11,14Zm7-3V9a5,5,0,0,0-5,5h2A3,3,0,0,1,18,11ZM7,4A2,2,0,1,0,5,6,1.993,1.993,0,0,0,7,4Zm4.45.5h-2A2.99,2.99,0,0,1,6.5,7h-3A1.5,1.5,0,0,0,2,8.5V11H8V8.74A4.97,4.97,0,0,0,11.45,4.5ZM19,17a2,2,0,1,0-2-2A1.993,1.993,0,0,0,19,17Zm1.5,1h-3a2.99,2.99,0,0,1-2.95-2.5h-2A4.97,4.97,0,0,0,16,19.74V22h6V19.5A1.5,1.5,0,0,0,20.5,18Z" transform="translate(-2 -2)" fill="#9d9d9d"/>
</svg>
