<svg width="14" height="8" viewBox="0 0 14 8" fill="none" xmlns="http://www.w3.org/2000/svg">
<path d="M0.25 4.75H1.75V3.25H0.25V4.75ZM0.25 7.75H1.75V6.25H0.25V7.75ZM0.25 1.75H1.75V0.25H0.25V1.75ZM3.25 4.75H13.75V3.25H3.25V4.75ZM3.25 7.75H13.75V6.25H3.25V7.75ZM3.25 0.25V1.75H13.75V0.25H3.25ZM0.25 4.75H1.75V3.25H0.25V4.75ZM0.25 7.75H1.75V6.25H0.25V7.75ZM0.25 1.75H1.75V0.25H0.25V1.75ZM3.25 4.75H13.75V3.25H3.25V4.75ZM3.25 7.75H13.75V6.25H3.25V7.75ZM3.25 0.25V1.75H13.75V0.25H3.25Z" fill="#2E2E3A"/>
</svg>
