<svg width="14" height="15" viewBox="0 0 14 15" fill="none" xmlns="http://www.w3.org/2000/svg">
<path d="M9.12099 4.81774L4.87899 9.06049C4.80735 9.12968 4.75022 9.21244 4.71091 9.30394C4.6716 9.39544 4.65091 9.49386 4.65005 9.59344C4.64918 9.69303 4.66816 9.79179 4.70587 9.88396C4.74358 9.97613 4.79927 10.0599 4.86969 10.1303C4.94011 10.2007 5.02385 10.2564 5.11602 10.2941C5.20819 10.3318 5.30695 10.3508 5.40654 10.3499C5.50612 10.3491 5.60454 10.3284 5.69604 10.2891C5.78754 10.2498 5.8703 10.1926 5.93949 10.121L10.1822 5.87899C10.6042 5.457 10.8413 4.88465 10.8413 4.28787C10.8413 3.69108 10.6042 3.11873 10.1822 2.69674C9.76024 2.27475 9.1879 2.03768 8.59111 2.03768C7.99432 2.03768 7.42198 2.27475 6.99999 2.69674L2.75724 6.93949C2.40179 7.28609 2.11871 7.69981 1.9244 8.15666C1.7301 8.61352 1.62844 9.1044 1.62533 9.60085C1.62222 10.0973 1.71772 10.5894 1.90628 11.0487C2.09485 11.5079 2.37273 11.9252 2.7238 12.2762C3.07487 12.6272 3.49215 12.905 3.95143 13.0935C4.41071 13.282 4.90284 13.3775 5.39929 13.3743C5.89573 13.3711 6.38661 13.2694 6.84343 13.075C7.30026 12.8806 7.71394 12.5975 8.06049 12.242L12.3032 7.99999L13.3637 9.06049L9.12099 13.3032C8.63345 13.7908 8.05467 14.1775 7.41768 14.4414C6.78069 14.7052 6.09796 14.841 5.40849 14.841C4.71901 14.841 4.03629 14.7052 3.3993 14.4414C2.7623 14.1775 2.18352 13.7908 1.69599 13.3032C1.20845 12.8157 0.821722 12.2369 0.557871 11.5999C0.29402 10.9629 0.158218 10.2802 0.158218 9.59074C0.158218 8.90127 0.29402 8.21854 0.557871 7.58155C0.821722 6.94456 1.20845 6.36577 1.69599 5.87824L5.93949 1.63624C6.64674 0.953149 7.594 0.57517 8.57724 0.583714C9.56048 0.592258 10.501 0.986642 11.1963 1.68192C11.8916 2.3772 12.286 3.31775 12.2945 4.30099C12.3031 5.28423 11.9251 6.23148 11.242 6.93874L6.99999 11.183C6.79099 11.3919 6.54288 11.5577 6.26983 11.6707C5.99678 11.7838 5.70413 11.842 5.4086 11.8419C5.11306 11.8419 4.82043 11.7837 4.5474 11.6705C4.27438 11.5574 4.02631 11.3916 3.81736 11.1826C3.60841 10.9736 3.44267 10.7255 3.32961 10.4525C3.21655 10.1794 3.15837 9.88676 3.15841 9.59123C3.15844 9.29569 3.21668 9.00306 3.32981 8.73003C3.44294 8.45701 3.60874 8.20894 3.81774 7.99999L8.06049 3.75724L9.12099 4.81774Z" fill="#9D9D9D"/>
</svg>
