<svg xmlns="http://www.w3.org/2000/svg" width="18" height="18" viewBox="0 0 18 18">
  <g id="myhealth_blu" transform="translate(-3 -3)">
    <path id="Path_8" data-name="Path 8" d="M5,5V19H19V5ZM9,17H7V10H9Zm4,0H11V7h2Zm4,0H15V13h2Z" fill="#d0cefe" opacity="0.3"/>
    <path id="Path_9" data-name="Path 9" d="M19,3H5A2.006,2.006,0,0,0,3,5V19a2.006,2.006,0,0,0,2,2H19a2.006,2.006,0,0,0,2-2V5A2.006,2.006,0,0,0,19,3Zm0,16H5V5H19ZM7,10H9v7H7Zm4-3h2V17H11Zm4,6h2v4H15Z" fill="#645cfa"/>
  </g>
</svg>
