<svg width="12" height="13" viewBox="0 0 12 13" fill="none" xmlns="http://www.w3.org/2000/svg">
<path d="M7.16666 0.583328H4.83333C4.5125 0.583328 4.25 0.845828 4.25 1.16666C4.25 1.4875 4.5125 1.74999 4.83333 1.74999H7.16666C7.4875 1.74999 7.75 1.4875 7.75 1.16666C7.75 0.845828 7.4875 0.583328 7.16666 0.583328ZM6 8.16666C6.32083 8.16666 6.58333 7.90416 6.58333 7.58333V5.25C6.58333 4.92916 6.32083 4.66666 6 4.66666C5.67916 4.66666 5.41666 4.92916 5.41666 5.25V7.58333C5.41666 7.90416 5.67916 8.16666 6 8.16666ZM10.1008 4.31083L10.5383 3.87333C10.76 3.65166 10.7658 3.28416 10.5383 3.05666L10.5325 3.05083C10.305 2.82333 9.94333 2.82916 9.71583 3.05083L9.27833 3.48833C8.37416 2.765 7.23666 2.33333 6 2.33333C3.2 2.33333 0.819997 4.64333 0.749997 7.44333C0.674164 10.4067 3.04833 12.8333 6 12.8333C8.905 12.8333 11.25 10.4825 11.25 7.58333C11.25 6.34666 10.8183 5.20916 10.1008 4.31083ZM6 11.6667C3.7425 11.6667 1.91666 9.84083 1.91666 7.58333C1.91666 5.32583 3.7425 3.5 6 3.5C8.2575 3.5 10.0833 5.32583 10.0833 7.58333C10.0833 9.84083 8.2575 11.6667 6 11.6667Z" fill="white"/>
</svg>
